<?xml version="1.0" encoding="iso-8859-1"?>
<!-- Generator: Adobe Illustrator 19.0.0, SVG Export Plug-In . SVG Version: 6.00 Build 0)  -->
<svg version="1.1" id="Layer_1" xmlns="http://www.w3.org/2000/svg" xmlns:xlink="http://www.w3.org/1999/xlink" x="0px" y="0px"
	 viewBox="0 0 512.13 512.13" style="enable-background:new 0 0 512.13 512.13;" xml:space="preserve">
<g>
	<g>
		<path d="M256.065,0C114.43,0,0,114.298,0,256.065S114.298,512.13,256.065,512.13S512.13,397.832,512.13,256.065
			S397.702,0,256.065,0z M256.065,477.892c-122.891,0-221.828-98.937-221.828-221.828S133.175,34.236,256.065,34.236
			s221.828,98.937,221.828,221.828S378.956,477.892,256.065,477.892z"/>
	</g>
</g>
<g>
	<g>
		<path d="M281.711,230.42l-81.883-61.445c-5.077-3.385-15.361-11.977-27.338-5.077c-11.977,5.077-11.977,20.439-11.977,29.03
			v129.659c0,8.591,0,22.13,11.977,29.03c3.385,1.692,5.077,1.692,8.592,1.692c6.769,0,13.669-5.077,18.746-6.769l80.191-61.445
			c10.284-6.769,15.361-17.053,15.361-29.03C295.38,245.78,290.173,237.319,281.711,230.42z M257.757,256.065l-64.83,49.469v-100.76
			l66.523,49.469L257.757,256.065z"/>
	</g>
</g>
<g>
	<g>
		<path d="M336.256,158.82c-10.284,0-17.054,6.769-17.054,17.053v160.382c0,10.285,6.769,17.053,17.054,17.053
			c8.592,0,17.054-8.591,17.054-17.053V175.873C353.31,165.59,346.541,158.82,336.256,158.82z"/>
	</g>
</g>
<g>
</g>
<g>
</g>
<g>
</g>
<g>
</g>
<g>
</g>
<g>
</g>
<g>
</g>
<g>
</g>
<g>
</g>
<g>
</g>
<g>
</g>
<g>
</g>
<g>
</g>
<g>
</g>
<g>
</g>
</svg>
