<?xml version="1.0" encoding="iso-8859-1"?>
<!-- Generator: Adobe Illustrator 17.1.0, SVG Export Plug-In . SVG Version: 6.00 Build 0)  -->
<!DOCTYPE svg PUBLIC "-//W3C//DTD SVG 1.1//EN" "http://www.w3.org/Graphics/SVG/1.1/DTD/svg11.dtd">
<svg version="1.1" id="Capa_1" xmlns="http://www.w3.org/2000/svg" xmlns:xlink="http://www.w3.org/1999/xlink" x="0px" y="0px"
	 viewBox="0 0 295.6 295.6" style="enable-background:new 0 0 295.6 295.6;" xml:space="preserve">
<g>
	<path d="M135.253,53.605l44.85,24.044c1.559,0.835,3.543,1.295,5.586,1.295c0,0,0,0,0.001,0c1.444,0,2.831-0.238,4.011-0.689
		l31.794-12.188c2.601-0.997,4.246-3.064,4.401-5.529c0.156-2.465-1.217-4.722-3.672-6.037l-44.849-24.044
		c-1.559-0.835-3.542-1.295-5.585-1.295c-1.446,0-2.834,0.239-4.013,0.691L135.981,42.04c-2.601,0.997-4.245,3.064-4.4,5.529
		C131.426,50.034,132.799,52.291,135.253,53.605z"/>
	<path d="M208.367,25.579l44.85,24.042c1.559,0.835,3.543,1.295,5.587,1.295c1.446,0,2.833-0.238,4.012-0.69l0.44-0.168
		c1.992-0.764,3.569-2.261,4.44-4.215s0.93-4.128,0.166-6.119l-13.26-34.59C253.424,2.063,250.419,0,247.124,0
		c-0.979,0-1.939,0.178-2.855,0.528l-35.173,13.484c-2.601,0.997-4.245,3.064-4.4,5.529
		C204.54,22.007,205.913,24.264,208.367,25.579z"/>
	<path d="M62.139,81.635l44.847,24.041c1.559,0.836,3.543,1.297,5.588,1.297c1.446,0,2.833-0.239,4.012-0.69l31.791-12.188
		c2.602-0.996,4.248-3.062,4.404-5.526c0.157-2.465-1.215-4.724-3.672-6.042L104.26,58.484c-1.56-0.835-3.544-1.295-5.587-1.295
		c-1.447,0-2.834,0.238-4.011,0.689L62.869,70.067c-2.602,0.998-4.247,3.065-4.402,5.53C58.311,78.063,59.685,80.32,62.139,81.635z"
		/>
	<path d="M273.104,124.6h-0.473c-3.113,0-6.71,1.255-8.744,3.609L232.104,164.6h-25.035l26.132-30.066
		c1.822-2.107,2.296-4.403,1.27-6.65c-1.027-2.246-3.304-3.284-6.09-3.284H194.33c-3.112,0-6.708,1.254-8.745,3.609L153.801,164.6
		h-25.035l26.132-30.066c1.822-2.107,2.296-4.403,1.27-6.65c-1.027-2.246-3.304-3.284-6.09-3.284h-34.051
		c-3.112,0-6.708,1.254-8.745,3.609L75.498,164.6H49.315l28.384-37.485c0.618-0.82,1.002-1.522,1.23-2.259
		c0.314-0.548,0.542-1.104,0.664-1.75c0.464-2.466-0.684-4.855-3.071-6.428l-45.124-29.71c-2.651-1.747-6.858-2.21-9.848-1.065
		l-1.736,0.668c-3.938,1.51-6.155,5.881-5.05,9.949l9.046,34.404c0.149,0.549,0.31,1.069,0.31,1.561v32.465v4.261v110.36
		c0,9.101,8.007,16.029,17.107,16.029h223.372c9.101,0,16.521-6.929,16.521-16.029V169.21v-4.261v-32.781
		C281.12,127.757,277.515,124.6,273.104,124.6z M202.717,255.6H70.908c-8.284,0-15-6.716-15-15c0-8.284,6.716-15,15-15h131.809
		c8.284,0,15,6.716,15,15C217.717,248.884,211.001,255.6,202.717,255.6z"/>
</g>
<g>
</g>
<g>
</g>
<g>
</g>
<g>
</g>
<g>
</g>
<g>
</g>
<g>
</g>
<g>
</g>
<g>
</g>
<g>
</g>
<g>
</g>
<g>
</g>
<g>
</g>
<g>
</g>
<g>
</g>
</svg>
